<svg xmlns="http://www.w3.org/2000/svg" xmlns:xlink="http://www.w3.org/1999/xlink" width="500" zoomAndPan="magnify" viewBox="0 0 375 374.999991" height="500" preserveAspectRatio="xMidYMid meet" version="1.0"><defs><g/><clipPath id="97c29c81f1"><path d="M 33.507812 200.605469 L 350.742188 200.605469 L 350.742188 237.679688 L 33.507812 237.679688 Z M 33.507812 200.605469 " clip-rule="nonzero"/></clipPath></defs><g fill="#3b3937" fill-opacity="1"><g transform="translate(165.914773, 299.498973)"><g><path d="M 61.15625 0 L 15.984375 -128.625 C 14.535156 -132.5625 12.757812 -135.253906 10.65625 -136.703125 C 8.550781 -138.148438 5.789062 -138.875 2.375 -138.875 L 0 -138.875 L 0 -140.84375 L 57.203125 -140.84375 L 57.203125 -138.875 L 50.5 -138.875 C 46.945312 -138.875 44.21875 -138.347656 42.3125 -137.296875 C 40.40625 -136.242188 39.453125 -134.335938 39.453125 -131.578125 C 39.453125 -129.210938 40.109375 -126.1875 41.421875 -122.5 L 65.5 -52.46875 C 70.09375 -39.320312 73.707031 -27.550781 76.34375 -17.15625 C 77.789062 -22.03125 79.429688 -27.425781 81.265625 -33.34375 C 83.109375 -39.257812 84.882812 -44.847656 86.59375 -50.109375 L 109.28125 -121.125 C 110.726562 -125.195312 111.453125 -128.414062 111.453125 -130.78125 C 111.453125 -133.8125 110.429688 -135.914062 108.390625 -137.09375 C 106.359375 -138.28125 103.109375 -138.875 98.640625 -138.875 L 86.59375 -138.875 L 86.59375 -140.84375 L 134.34375 -140.84375 L 134.34375 -138.875 L 127.625 -138.875 C 123.8125 -138.875 120.785156 -137.785156 118.546875 -135.609375 C 116.316406 -133.441406 114.347656 -129.535156 112.640625 -123.890625 L 72.59375 0 Z M 61.15625 0 "/></g></g></g><g fill="#3b3937" fill-opacity="1"><g transform="translate(67.813417, 258.323663)"><g><path d="M 31.484375 0 L 31.484375 -2 L 35.65625 -2 C 40.3125 -2 43.929688 -3.0625 46.515625 -5.1875 C 49.109375 -7.3125 50.40625 -10.894531 50.40625 -15.9375 L 50.40625 -140.25 L 35.0625 -140.25 C 24.832031 -140.25 17.5625 -138.289062 13.25 -134.375 C 8.9375 -130.457031 6.515625 -123.519531 5.984375 -113.5625 L 5.375 -106.390625 L 3.390625 -106.390625 L 4.78125 -142.25 L 119.734375 -142.25 L 120.921875 -106.390625 L 118.9375 -106.390625 L 118.53125 -113.5625 C 117.875 -123.519531 115.382812 -130.457031 111.0625 -134.375 C 106.75 -138.289062 99.476562 -140.25 89.25 -140.25 L 73.71875 -140.25 L 73.71875 -15.9375 C 73.71875 -10.894531 74.941406 -7.3125 77.390625 -5.1875 C 79.847656 -3.0625 83.46875 -2 88.25 -2 L 92.4375 -2 L 92.4375 0 Z M 31.484375 0 "/></g></g></g><g clip-path="url(#97c29c81f1)"><path fill="#f4f4f4" d="M 33.507812 200.605469 L 350.5 200.605469 L 350.5 237.519531 L 33.507812 237.519531 Z M 33.507812 200.605469 " fill-opacity="1" fill-rule="nonzero"/></g><g fill="#967f71" fill-opacity="1"><g transform="translate(100.495853, 227.124491)"><g><path d="M 21.097656 -14.828125 C 21.050781 -14.921875 20.957031 -14.984375 20.847656 -15.015625 C 20.738281 -15.03125 20.628906 -15.015625 20.535156 -14.96875 C 18.230469 -13.574219 15.503906 -14.59375 12.351562 -15.769531 C 8.714844 -17.148438 4.59375 -18.683594 -0.0625 -16.976562 C -3.183594 -15.832031 -3.792969 -13.480469 -3.308594 -11.664062 C -2.867188 -9.96875 -1.550781 -8.777344 -0.203125 -8.777344 C -0.09375 -8.777344 0.03125 -8.792969 0.140625 -8.808594 C 0.296875 -8.824219 0.421875 -8.917969 0.46875 -9.058594 C 0.53125 -9.203125 0.5 -9.359375 0.40625 -9.484375 C 0.3125 -9.59375 0.15625 -9.640625 0.015625 -9.609375 C -1.003906 -9.453125 -2.148438 -10.457031 -2.507812 -11.867188 C -2.695312 -12.570312 -3.054688 -15 0.21875 -16.207031 C 2.460938 -17.007812 4.875 -17.132812 7.164062 -16.570312 C 7.335938 -16.539062 7.476562 -16.425781 7.570312 -16.285156 C 7.648438 -16.144531 7.679688 -15.972656 7.632812 -15.816406 C 6.960938 -13.261719 4.890625 -5.675781 3.039062 -1.019531 C 2.960938 -0.800781 3.054688 -0.5625 3.277344 -0.484375 C 3.480469 -0.40625 3.714844 -0.5 3.808594 -0.722656 C 5.675781 -5.40625 7.742188 -13.011719 8.433594 -15.597656 C 8.464844 -15.753906 8.574219 -15.894531 8.714844 -15.972656 C 8.871094 -16.050781 9.042969 -16.066406 9.203125 -16.019531 C 10.1875 -15.707031 11.128906 -15.363281 12.054688 -15 C 15.265625 -13.808594 18.308594 -12.664062 20.957031 -14.265625 C 21.160156 -14.375 21.222656 -14.625 21.097656 -14.828125 Z M 21.097656 -14.828125 "/></g></g></g><g fill="#967f71" fill-opacity="1"><g transform="translate(108.079177, 227.124491)"><g><path d="M 13.105469 -3.792969 C 12.949219 -3.964844 12.679688 -3.980469 12.507812 -3.824219 C 12.460938 -3.777344 7.804688 0.40625 4.921875 -1.488281 C 3.777344 -2.242188 3.496094 -4.058594 3.496094 -4.074219 C 3.480469 -4.261719 3.339844 -4.40625 3.152344 -4.4375 C 2.976562 -4.453125 2.789062 -4.359375 2.710938 -4.199219 C 1.976562 -2.570312 0.675781 -0.5 0.3125 -0.738281 C 0.28125 -0.738281 0.21875 -0.800781 0.171875 -0.910156 C -0.015625 -1.425781 0.046875 -1.992188 0.3125 -2.476562 C 0.910156 -3.699219 2.007812 -4.578125 3.324219 -4.90625 C 3.464844 -4.9375 3.574219 -5.046875 3.621094 -5.1875 C 3.667969 -5.328125 3.621094 -5.484375 3.527344 -5.597656 C 3.417969 -5.691406 3.277344 -5.738281 3.136719 -5.707031 C 1.566406 -5.328125 0.265625 -4.261719 -0.4375 -2.820312 C -0.816406 -2.117188 -0.863281 -1.269531 -0.5625 -0.53125 C -0.421875 -0.171875 -0.078125 0.078125 0.3125 0.078125 L 0.328125 0.078125 C 1.097656 0.0625 2.054688 -0.894531 2.710938 -1.929688 C 2.789062 -2.054688 2.929688 -2.117188 3.074219 -2.101562 C 3.214844 -2.101562 3.339844 -2.023438 3.402344 -1.898438 C 3.667969 -1.457031 4.027344 -1.082031 4.46875 -0.816406 C 7.882812 1.457031 12.851562 -3.023438 13.074219 -3.214844 C 13.152344 -3.292969 13.199219 -3.402344 13.199219 -3.496094 C 13.214844 -3.605469 13.167969 -3.714844 13.105469 -3.792969 Z M 13.105469 -3.792969 "/></g></g></g><g fill="#967f71" fill-opacity="1"><g transform="translate(120.738951, 227.124491)"><g><path d="M 12.398438 -4.3125 C 12.226562 -4.46875 11.976562 -4.46875 11.820312 -4.3125 C 11.726562 -4.214844 9.671875 -2.179688 6.898438 -4.214844 C 6.742188 -4.328125 6.535156 -4.328125 6.378906 -4.183594 C 6.128906 -3.964844 5.863281 -3.699219 5.582031 -3.417969 C 5.46875 -3.292969 5.28125 -3.246094 5.125 -3.308594 C 4.96875 -3.371094 4.859375 -3.511719 4.84375 -3.683594 C 4.84375 -4.011719 4.796875 -4.34375 4.6875 -4.65625 C 4.625 -4.828125 4.453125 -4.9375 4.261719 -4.90625 C 4.074219 -4.890625 3.933594 -4.75 3.902344 -4.578125 C 3.902344 -4.546875 3.402344 -1.769531 1.269531 -1.207031 C 1.082031 -1.144531 0.878906 -1.191406 0.738281 -1.332031 C 0.609375 -1.472656 0.25 -2.101562 1.066406 -4.089844 C 1.144531 -4.3125 1.050781 -4.546875 0.832031 -4.625 C 0.628906 -4.71875 0.375 -4.609375 0.296875 -4.40625 C -0.578125 -2.242188 -0.28125 -1.238281 0.109375 -0.785156 C 0.453125 -0.40625 0.988281 -0.265625 1.472656 -0.421875 C 2.570312 -0.722656 3.480469 -1.472656 3.996094 -2.476562 C 3.980469 -2.179688 3.933594 -1.882812 3.886719 -1.566406 C 3.871094 -1.503906 3.839844 -1.425781 3.792969 -1.363281 C 1.960938 0.941406 0.296875 3.761719 0.265625 5.535156 C 0.21875 6.003906 0.390625 6.472656 0.722656 6.835938 C 0.863281 6.976562 1.050781 7.070312 1.253906 7.070312 C 1.425781 7.054688 1.597656 7.007812 1.738281 6.914062 C 2.773438 6.222656 4.089844 2.210938 4.609375 -0.988281 C 4.625 -1.066406 4.65625 -1.128906 4.703125 -1.191406 C 5.1875 -1.785156 5.691406 -2.351562 6.191406 -2.851562 C 6.472656 -3.152344 6.898438 -3.214844 7.257812 -3.023438 C 8.949219 -2.132812 11.019531 -2.414062 12.398438 -3.730469 C 12.476562 -3.808594 12.523438 -3.917969 12.523438 -4.027344 C 12.523438 -4.136719 12.476562 -4.230469 12.398438 -4.3125 Z M 3.449219 0.722656 C 3.105469 2.289062 2.601562 3.792969 1.945312 5.25 C 1.582031 5.972656 1.425781 6.253906 1.269531 6.222656 C 1.128906 6.207031 1.082031 5.863281 1.097656 5.550781 C 1.113281 4.40625 2.054688 2.523438 3.308594 0.691406 C 3.386719 0.578125 3.480469 0.609375 3.449219 0.722656 Z M 3.449219 0.722656 "/></g></g></g><g fill="#967f71" fill-opacity="1"><g transform="translate(132.380304, 227.124491)"><g><path d="M 10.785156 -4.011719 C 10.707031 -4.089844 10.597656 -4.136719 10.488281 -4.136719 C 10.375 -4.136719 10.265625 -4.089844 10.1875 -4.011719 C 10.15625 -3.980469 6.035156 0.078125 3.074219 -0.816406 C 2.023438 -1.128906 1.441406 -2.132812 1.113281 -3.199219 C 1.019531 -3.542969 1.050781 -3.917969 1.207031 -4.246094 C 2.304688 -6.472656 5 -12.304688 3.667969 -13.730469 C 3.355469 -14.125 2.835938 -14.25 2.382812 -14.058594 C 0.800781 -13.371094 -0.25 -8.746094 -0.0625 -5.375 C -0.03125 -4.859375 0.03125 -4.34375 0.125 -3.824219 C 0.125 -3.761719 0.125 -3.714844 0.15625 -3.667969 C 0.5625 -1.691406 1.488281 -0.421875 2.835938 -0.03125 C 3.214844 0.078125 3.589844 0.140625 3.964844 0.140625 C 7.148438 0.140625 10.613281 -3.277344 10.769531 -3.433594 C 10.847656 -3.511719 10.894531 -3.605469 10.894531 -3.714844 C 10.894531 -3.839844 10.863281 -3.933594 10.785156 -4.011719 Z M 0.800781 -5.613281 C 0.3125 -8.230469 1.929688 -12.980469 2.710938 -13.308594 C 2.742188 -13.324219 2.773438 -13.339844 2.804688 -13.339844 C 2.867188 -13.339844 2.945312 -13.308594 3.054688 -13.183594 C 3.683594 -12.523438 1.898438 -6.851562 1.066406 -5.519531 C 0.988281 -5.375 0.832031 -5.453125 0.800781 -5.613281 Z M 0.800781 -5.613281 "/></g></g></g><g fill="#967f71" fill-opacity="1"><g transform="translate(142.70554, 227.124491)"><g><path d="M 11.425781 -4.453125 C 11.347656 -4.53125 11.253906 -4.5625 11.144531 -4.5625 C 11.035156 -4.5625 10.925781 -4.53125 10.847656 -4.453125 C 8.964844 -2.570312 6.300781 -1.707031 3.683594 -2.148438 C 3.480469 -2.195312 3.339844 -2.382812 3.371094 -2.585938 C 3.496094 -3.339844 3.433594 -4.105469 2.992188 -4.359375 C 2.710938 -4.515625 2.289062 -4.53125 1.785156 -3.683594 C 1.597656 -3.402344 1.535156 -3.054688 1.597656 -2.726562 C 1.675781 -2.398438 1.882812 -2.101562 2.164062 -1.929688 C 2.335938 -1.785156 2.132812 -1.550781 2.023438 -1.441406 C 1.722656 -1.082031 1.207031 -1.019531 0.847656 -1.300781 C 0.390625 -1.503906 0.1875 -2.007812 0.359375 -2.460938 C 0.5625 -3.292969 1.378906 -4.011719 1.675781 -4.011719 C 1.898438 -4.011719 2.085938 -4.199219 2.085938 -4.421875 C 2.101562 -4.640625 1.914062 -4.828125 1.691406 -4.84375 L 1.675781 -4.84375 C 0.894531 -4.84375 -0.15625 -3.777344 -0.4375 -2.664062 C -0.707031 -1.851562 -0.328125 -0.957031 0.453125 -0.578125 C 0.753906 -0.40625 1.082031 -0.328125 1.425781 -0.3125 C 2.101562 -0.34375 2.695312 -0.753906 2.976562 -1.378906 C 3.007812 -1.425781 3.089844 -1.457031 3.152344 -1.441406 C 5.140625 -0.847656 8.777344 -1.222656 11.425781 -3.855469 C 11.503906 -3.933594 11.550781 -4.042969 11.550781 -4.152344 C 11.550781 -4.261719 11.503906 -4.375 11.425781 -4.453125 Z M 2.554688 -2.664062 C 2.382812 -2.820312 2.351562 -3.074219 2.492188 -3.261719 C 2.539062 -3.339844 2.570312 -3.386719 2.601562 -3.433594 C 2.617188 -3.183594 2.601562 -2.914062 2.554688 -2.664062 Z M 2.554688 -2.664062 "/></g></g></g><g fill="#967f71" fill-opacity="1"><g transform="translate(153.532154, 227.124491)"><g><path d="M 13.511719 -4.121094 C 13.433594 -4.199219 13.339844 -4.246094 13.230469 -4.246094 C 13.121094 -4.246094 13.011719 -4.199219 12.933594 -4.121094 C 10.21875 -1.472656 5.40625 -0.910156 4.375 -1.519531 C 3.667969 -1.929688 3.746094 -2.414062 4.246094 -3.386719 C 4.484375 -3.855469 4.75 -4.40625 4.296875 -4.734375 C 3.871094 -5.046875 3.464844 -4.84375 3.105469 -4.65625 C 2.585938 -4.359375 2.007812 -4.199219 1.394531 -4.199219 C 1.253906 -4.199219 1.128906 -4.453125 1.160156 -4.546875 C 2.039062 -6.472656 1.644531 -6.835938 1.503906 -6.976562 C 1.269531 -7.210938 0.910156 -7.195312 0.46875 -6.929688 C -0.25 -6.410156 -0.5625 -5.484375 -0.3125 -4.625 C -0.25 -4.390625 -0.140625 -4.167969 0.015625 -3.980469 C 0 -3.808594 0.078125 -3.652344 0.234375 -3.574219 C 0.328125 -3.527344 0.4375 -3.527344 0.546875 -3.558594 C 0.816406 -3.433594 1.113281 -3.371094 1.410156 -3.371094 C 2.054688 -3.355469 2.679688 -3.496094 3.246094 -3.808594 C 3.464844 -3.917969 3.542969 -3.824219 3.511719 -3.761719 C 3.136719 -3.023438 2.460938 -1.675781 3.964844 -0.800781 C 4.5 -0.546875 5.09375 -0.4375 5.691406 -0.484375 C 7.882812 -0.484375 11.332031 -1.425781 13.496094 -3.542969 C 13.574219 -3.605469 13.621094 -3.714844 13.621094 -3.824219 C 13.636719 -3.933594 13.589844 -4.042969 13.511719 -4.121094 Z M 0.453125 -4.984375 C 0.359375 -5.4375 0.515625 -5.910156 0.878906 -6.207031 C 0.769531 -5.785156 0.628906 -5.375 0.453125 -4.96875 Z M 0.453125 -4.984375 "/></g></g></g><g fill="#967f71" fill-opacity="1"><g transform="translate(166.379943, 227.124491)"><g/></g></g><g fill="#967f71" fill-opacity="1"><g transform="translate(172.208453, 227.124491)"><g><path d="M 17.007812 -5.597656 C 19.1875 -8.964844 20.550781 -13.667969 18.917969 -16.097656 C 18.839844 -16.222656 18.699219 -16.300781 18.558594 -16.285156 C 18.402344 -16.285156 18.277344 -16.191406 18.214844 -16.050781 C 18.152344 -15.925781 18.152344 -15.769531 18.246094 -15.644531 C 19.484375 -13.792969 18.652344 -9.65625 16.316406 -6.035156 C 13.808594 -2.164062 10.488281 -0.140625 7.414062 -0.644531 C 7.226562 -0.660156 7.070312 -0.769531 6.976562 -0.925781 C 6.410156 -1.882812 7.523438 -4.875 8.511719 -7.523438 C 9.703125 -10.707031 10.816406 -13.714844 10.03125 -15.109375 C 9.8125 -15.503906 9.421875 -15.769531 8.964844 -15.847656 C 6.144531 -16.363281 2.429688 -14.28125 1.191406 -11.457031 C 0.265625 -9.359375 0.910156 -7.257812 2.945312 -5.722656 C 3.136719 -5.582031 3.386719 -5.613281 3.527344 -5.800781 C 3.667969 -5.988281 3.636719 -6.238281 3.449219 -6.378906 C 1.207031 -8.058594 1.394531 -9.890625 1.945312 -11.128906 C 3.023438 -13.589844 6.363281 -15.488281 8.808594 -15.03125 C 9.027344 -15.015625 9.21875 -14.890625 9.3125 -14.703125 C 9.90625 -13.636719 8.761719 -10.550781 7.742188 -7.804688 C 6.535156 -4.59375 5.5 -1.800781 6.253906 -0.515625 C 6.472656 -0.140625 6.851562 0.109375 7.273438 0.15625 C 7.632812 0.21875 7.996094 0.25 8.355469 0.25 C 11.425781 0.25 14.59375 -1.867188 17.007812 -5.597656 Z M 17.007812 -5.597656 "/></g></g></g><g fill="#967f71" fill-opacity="1"><g transform="translate(189.975999, 227.124491)"><g><path d="M 13.105469 -3.792969 C 12.949219 -3.964844 12.679688 -3.980469 12.507812 -3.824219 C 12.460938 -3.777344 7.804688 0.40625 4.921875 -1.488281 C 3.777344 -2.242188 3.496094 -4.058594 3.496094 -4.074219 C 3.480469 -4.261719 3.339844 -4.40625 3.152344 -4.4375 C 2.976562 -4.453125 2.789062 -4.359375 2.710938 -4.199219 C 1.976562 -2.570312 0.675781 -0.5 0.3125 -0.738281 C 0.28125 -0.738281 0.21875 -0.800781 0.171875 -0.910156 C -0.015625 -1.425781 0.046875 -1.992188 0.3125 -2.476562 C 0.910156 -3.699219 2.007812 -4.578125 3.324219 -4.90625 C 3.464844 -4.9375 3.574219 -5.046875 3.621094 -5.1875 C 3.667969 -5.328125 3.621094 -5.484375 3.527344 -5.597656 C 3.417969 -5.691406 3.277344 -5.738281 3.136719 -5.707031 C 1.566406 -5.328125 0.265625 -4.261719 -0.4375 -2.820312 C -0.816406 -2.117188 -0.863281 -1.269531 -0.5625 -0.53125 C -0.421875 -0.171875 -0.078125 0.078125 0.3125 0.078125 L 0.328125 0.078125 C 1.097656 0.0625 2.054688 -0.894531 2.710938 -1.929688 C 2.789062 -2.054688 2.929688 -2.117188 3.074219 -2.101562 C 3.214844 -2.101562 3.339844 -2.023438 3.402344 -1.898438 C 3.667969 -1.457031 4.027344 -1.082031 4.46875 -0.816406 C 7.882812 1.457031 12.851562 -3.023438 13.074219 -3.214844 C 13.152344 -3.292969 13.199219 -3.402344 13.199219 -3.496094 C 13.214844 -3.605469 13.167969 -3.714844 13.105469 -3.792969 Z M 13.105469 -3.792969 "/></g></g></g><g fill="#967f71" fill-opacity="1"><g transform="translate(202.635773, 227.124491)"><g><path d="M 13.511719 -4.121094 C 13.433594 -4.199219 13.339844 -4.246094 13.230469 -4.246094 C 13.121094 -4.246094 13.011719 -4.199219 12.933594 -4.121094 C 10.21875 -1.472656 5.40625 -0.910156 4.375 -1.519531 C 3.667969 -1.929688 3.746094 -2.414062 4.246094 -3.386719 C 4.484375 -3.855469 4.75 -4.40625 4.296875 -4.734375 C 3.871094 -5.046875 3.464844 -4.84375 3.105469 -4.65625 C 2.585938 -4.359375 2.007812 -4.199219 1.394531 -4.199219 C 1.253906 -4.199219 1.128906 -4.453125 1.160156 -4.546875 C 2.039062 -6.472656 1.644531 -6.835938 1.503906 -6.976562 C 1.269531 -7.210938 0.910156 -7.195312 0.46875 -6.929688 C -0.25 -6.410156 -0.5625 -5.484375 -0.3125 -4.625 C -0.25 -4.390625 -0.140625 -4.167969 0.015625 -3.980469 C 0 -3.808594 0.078125 -3.652344 0.234375 -3.574219 C 0.328125 -3.527344 0.4375 -3.527344 0.546875 -3.558594 C 0.816406 -3.433594 1.113281 -3.371094 1.410156 -3.371094 C 2.054688 -3.355469 2.679688 -3.496094 3.246094 -3.808594 C 3.464844 -3.917969 3.542969 -3.824219 3.511719 -3.761719 C 3.136719 -3.023438 2.460938 -1.675781 3.964844 -0.800781 C 4.5 -0.546875 5.09375 -0.4375 5.691406 -0.484375 C 7.882812 -0.484375 11.332031 -1.425781 13.496094 -3.542969 C 13.574219 -3.605469 13.621094 -3.714844 13.621094 -3.824219 C 13.636719 -3.933594 13.589844 -4.042969 13.511719 -4.121094 Z M 0.453125 -4.984375 C 0.359375 -5.4375 0.515625 -5.910156 0.878906 -6.207031 C 0.769531 -5.785156 0.628906 -5.375 0.453125 -4.96875 Z M 0.453125 -4.984375 "/></g></g></g><g fill="#967f71" fill-opacity="1"><g transform="translate(215.483561, 227.124491)"><g><path d="M 10.15625 -4.230469 C 9.984375 -4.390625 9.734375 -4.390625 9.578125 -4.214844 C 9.515625 -4.167969 4.4375 1.003906 1.066406 -1.457031 C 0.03125 -2.210938 1.035156 -4.167969 1.050781 -4.183594 C 1.144531 -4.390625 1.066406 -4.625 0.863281 -4.734375 C 0.660156 -4.828125 0.421875 -4.765625 0.3125 -4.5625 C 0.25 -4.46875 -1.019531 -1.976562 0.578125 -0.800781 C 1.316406 -0.25 2.226562 0.046875 3.152344 0.03125 C 6.535156 0.03125 9.96875 -3.464844 10.15625 -3.652344 C 10.234375 -3.730469 10.28125 -3.824219 10.28125 -3.933594 C 10.265625 -4.042969 10.234375 -4.152344 10.15625 -4.230469 Z M 0.140625 -5.46875 C 0.203125 -5.46875 0.265625 -5.484375 0.328125 -5.519531 C 0.707031 -5.707031 1.035156 -5.957031 1.332031 -6.253906 C 1.488281 -6.425781 1.472656 -6.675781 1.316406 -6.835938 C 1.144531 -6.992188 0.894531 -6.992188 0.738281 -6.820312 C 0.5 -6.582031 0.234375 -6.394531 -0.0625 -6.238281 C -0.21875 -6.160156 -0.3125 -5.957031 -0.265625 -5.785156 C -0.21875 -5.597656 -0.046875 -5.46875 0.140625 -5.46875 Z M 0.140625 -5.46875 "/></g></g></g><g fill="#967f71" fill-opacity="1"><g transform="translate(225.103739, 227.124491)"><g><path d="M 13.214844 -3.902344 C 13.058594 -4.074219 12.789062 -4.089844 12.632812 -3.933594 C 12.585938 -3.902344 8.074219 0.125 1.753906 -1.019531 C 0.691406 -1.207031 0.140625 -1.613281 0.140625 -2.210938 C 0.125 -3.308594 1.832031 -4.90625 2.960938 -5.125 C 3.308594 -5.234375 3.683594 -5.171875 3.996094 -4.96875 C 4.214844 -4.75 4.34375 -4.4375 4.34375 -4.105469 C 4.34375 -3.886719 4.515625 -3.699219 4.734375 -3.699219 C 4.96875 -3.699219 5.140625 -3.871094 5.15625 -4.089844 C 5.171875 -4.65625 4.9375 -5.203125 4.53125 -5.597656 C 4.027344 -5.972656 3.402344 -6.097656 2.804688 -5.925781 C 1.441406 -5.675781 -0.691406 -3.855469 -0.675781 -2.195312 C -0.675781 -1.597656 -0.375 -0.5625 1.613281 -0.203125 C 2.414062 -0.0625 3.230469 0.015625 4.058594 0.015625 C 7.382812 -0.015625 10.613281 -1.191406 13.183594 -3.324219 C 13.261719 -3.402344 13.308594 -3.511719 13.324219 -3.605469 C 13.324219 -3.714844 13.277344 -3.824219 13.214844 -3.902344 Z M 13.214844 -3.902344 "/></g></g></g><g fill="#967f71" fill-opacity="1"><g transform="translate(237.653833, 227.124491)"><g><path d="M 12.367188 -3.746094 C 12.210938 -3.917969 11.960938 -3.933594 11.789062 -3.777344 C 11.757812 -3.761719 8.527344 -0.941406 6.160156 -1.316406 C 5.453125 -1.425781 4.84375 -1.851562 4.5 -2.476562 C 4.199219 -3.023438 3.652344 -3.371094 3.039062 -3.433594 C 2.273438 -3.480469 1.425781 -3.023438 0.53125 -2.085938 C 0.484375 -2.039062 0.40625 -2.023438 0.34375 -2.054688 C 0.28125 -2.085938 0.25 -2.148438 0.265625 -2.226562 C 0.3125 -2.523438 0.453125 -3.277344 0.515625 -3.558594 C 0.515625 -3.511719 0.628906 -3.730469 0.628906 -3.746094 C 1.960938 -5.566406 5.941406 -11.332031 4.390625 -13.183594 C 4.183594 -13.464844 3.808594 -13.589844 3.464844 -13.496094 C 3.152344 -13.402344 2.195312 -13.105469 0.722656 -7.867188 C 0.359375 -6.597656 0.03125 -5.234375 -0.234375 -3.949219 L -0.34375 -3.808594 C -0.453125 -3.667969 -0.453125 -3.480469 -0.359375 -3.324219 C -0.59375 -2.164062 -0.753906 -1.097656 -0.832031 -0.28125 C -0.847656 -0.09375 -0.738281 0.078125 -0.5625 0.140625 C -0.390625 0.203125 -0.1875 0.140625 -0.078125 -0.015625 C 1.519531 -2.335938 2.539062 -2.632812 2.992188 -2.617188 C 3.324219 -2.585938 3.621094 -2.382812 3.777344 -2.085938 C 4.246094 -1.238281 5.078125 -0.644531 6.050781 -0.5 C 8.777344 -0.078125 12.179688 -3.039062 12.335938 -3.167969 C 12.492188 -3.324219 12.507812 -3.574219 12.367188 -3.746094 Z M 3.699219 -12.710938 C 3.730469 -12.710938 3.746094 -12.664062 3.761719 -12.648438 C 4.515625 -11.804688 1.394531 -5.5 1.003906 -5.753906 C 0.628906 -5.988281 3.039062 -12.710938 3.699219 -12.710938 Z M 3.699219 -12.710938 "/></g></g></g><g fill="#967f71" fill-opacity="1"><g transform="translate(249.498868, 227.124491)"><g><path d="M 13.105469 -3.792969 C 12.949219 -3.964844 12.679688 -3.980469 12.507812 -3.824219 C 12.460938 -3.777344 7.804688 0.40625 4.921875 -1.488281 C 3.777344 -2.242188 3.496094 -4.058594 3.496094 -4.074219 C 3.480469 -4.261719 3.339844 -4.40625 3.152344 -4.4375 C 2.976562 -4.453125 2.789062 -4.359375 2.710938 -4.199219 C 1.976562 -2.570312 0.675781 -0.5 0.3125 -0.738281 C 0.28125 -0.738281 0.21875 -0.800781 0.171875 -0.910156 C -0.015625 -1.425781 0.046875 -1.992188 0.3125 -2.476562 C 0.910156 -3.699219 2.007812 -4.578125 3.324219 -4.90625 C 3.464844 -4.9375 3.574219 -5.046875 3.621094 -5.1875 C 3.667969 -5.328125 3.621094 -5.484375 3.527344 -5.597656 C 3.417969 -5.691406 3.277344 -5.738281 3.136719 -5.707031 C 1.566406 -5.328125 0.265625 -4.261719 -0.4375 -2.820312 C -0.816406 -2.117188 -0.863281 -1.269531 -0.5625 -0.53125 C -0.421875 -0.171875 -0.078125 0.078125 0.3125 0.078125 L 0.328125 0.078125 C 1.097656 0.0625 2.054688 -0.894531 2.710938 -1.929688 C 2.789062 -2.054688 2.929688 -2.117188 3.074219 -2.101562 C 3.214844 -2.101562 3.339844 -2.023438 3.402344 -1.898438 C 3.667969 -1.457031 4.027344 -1.082031 4.46875 -0.816406 C 7.882812 1.457031 12.851562 -3.023438 13.074219 -3.214844 C 13.152344 -3.292969 13.199219 -3.402344 13.199219 -3.496094 C 13.214844 -3.605469 13.167969 -3.714844 13.105469 -3.792969 Z M 13.105469 -3.792969 "/></g></g></g><g fill="#967f71" fill-opacity="1"><g transform="translate(262.158642, 227.124491)"><g><path d="M 12.949219 -3.714844 C 12.789062 -3.871094 12.523438 -3.886719 12.351562 -3.730469 C 9.765625 -1.222656 4.578125 -0.722656 2.867188 -1.425781 C 2.617188 -1.535156 2.460938 -1.660156 2.445312 -1.753906 C 2.445312 -1.976562 2.882812 -2.554688 4.578125 -3.355469 C 4.9375 -3.449219 5.328125 -3.574219 5.34375 -3.933594 C 5.328125 -4.121094 5.21875 -4.3125 5.03125 -4.375 C 4.515625 -4.546875 2.664062 -4.027344 0.785156 -2.132812 C 0.722656 -2.070312 0.609375 -2.054688 0.53125 -2.085938 C 0.4375 -2.132812 0.390625 -2.226562 0.40625 -2.320312 C 0.453125 -2.679688 0.484375 -3.023438 0.53125 -3.371094 C 0.53125 -3.386719 0.546875 -3.386719 0.546875 -3.402344 C 1.722656 -5.28125 5.453125 -11.566406 4.390625 -13.042969 C 4.089844 -13.402344 3.605469 -13.542969 3.167969 -13.371094 C 0.816406 -12.789062 -0.09375 -6.113281 -0.609375 -0.34375 C -0.628906 -0.15625 -0.515625 0.015625 -0.34375 0.078125 C -0.171875 0.140625 0.015625 0.078125 0.125 -0.078125 C 0.53125 -0.660156 0.988281 -1.207031 1.503906 -1.691406 C 1.566406 -1.769531 1.628906 -1.753906 1.628906 -1.738281 C 1.628906 -1.410156 1.800781 -0.972656 2.554688 -0.660156 C 4.484375 0.125 10.0625 -0.359375 12.933594 -3.136719 C 13.011719 -3.214844 13.058594 -3.308594 13.058594 -3.417969 C 13.058594 -3.527344 13.011719 -3.636719 12.949219 -3.714844 Z M 3.371094 -12.570312 C 3.433594 -12.585938 3.511719 -12.601562 3.589844 -12.601562 C 3.652344 -12.601562 3.699219 -12.585938 3.714844 -12.554688 C 4.042969 -12.117188 3.214844 -9.734375 1.347656 -6.363281 C 1.300781 -6.285156 1.191406 -6.253906 1.113281 -6.285156 C 1.019531 -6.316406 0.957031 -6.410156 0.972656 -6.503906 C 1.753906 -11.082031 2.664062 -12.398438 3.371094 -12.570312 Z M 3.371094 -12.570312 "/></g></g></g></svg>