<svg xmlns="http://www.w3.org/2000/svg" xmlns:xlink="http://www.w3.org/1999/xlink" width="500" zoomAndPan="magnify" viewBox="0 0 375 374.999991" height="500" preserveAspectRatio="xMidYMid meet" version="1.0"><path fill="#c5df94" d="M 18.328125 180.023438 C 21.519531 192.148438 23.582031 204.460938 24.523438 216.957031 C 25.464844 229.457031 25.265625 241.9375 23.925781 254.402344 C 23.925781 254.820312 23.964844 255.238281 24.046875 255.648438 C 24.128906 256.058594 24.25 256.460938 24.414062 256.847656 C 24.574219 257.234375 24.769531 257.605469 25.003906 257.953125 C 25.238281 258.300781 25.503906 258.625 25.800781 258.921875 C 26.097656 259.21875 26.421875 259.484375 26.773438 259.71875 C 27.121094 259.949219 27.492188 260.148438 27.882812 260.308594 C 28.269531 260.46875 28.671875 260.589844 29.082031 260.671875 C 29.496094 260.753906 29.914062 260.792969 30.332031 260.792969 C 30.75 260.785156 31.164062 260.734375 31.570312 260.644531 C 31.980469 260.554688 32.375 260.429688 32.757812 260.265625 C 33.144531 260.101562 33.507812 259.902344 33.855469 259.667969 C 34.199219 259.433594 34.519531 259.167969 34.816406 258.875 C 35.113281 258.578125 35.375 258.257812 35.609375 257.914062 C 35.84375 257.570312 36.042969 257.207031 36.210938 256.824219 C 36.375 256.4375 36.5 256.042969 36.589844 255.636719 C 36.679688 255.230469 36.730469 254.816406 36.742188 254.402344 C 38.109375 241.359375 38.285156 228.304688 37.265625 215.230469 C 36.246094 202.160156 34.046875 189.289062 30.675781 176.617188 C 30.554688 176.222656 30.394531 175.84375 30.199219 175.480469 C 30.003906 175.117188 29.777344 174.777344 29.515625 174.457031 C 29.253906 174.140625 28.964844 173.847656 28.648438 173.585938 C 28.328125 173.320312 27.988281 173.089844 27.628906 172.894531 C 27.265625 172.695312 26.886719 172.535156 26.496094 172.410156 C 26.101562 172.285156 25.699219 172.199219 25.289062 172.152344 C 24.878906 172.105469 24.46875 172.097656 24.058594 172.128906 C 23.644531 172.160156 23.242188 172.230469 22.84375 172.339844 C 22.445312 172.449219 22.0625 172.597656 21.691406 172.78125 C 21.324219 172.964844 20.972656 173.183594 20.648438 173.433594 C 20.320312 173.683594 20.019531 173.964844 19.746094 174.273438 C 19.472656 174.582031 19.234375 174.914062 19.023438 175.269531 C 18.816406 175.625 18.644531 175.996094 18.507812 176.386719 C 18.371094 176.773438 18.269531 177.171875 18.210938 177.578125 C 18.152344 177.988281 18.132812 178.398438 18.152344 178.808594 C 18.171875 179.21875 18.230469 179.625 18.328125 180.023438 Z M 18.328125 180.023438 " fill-opacity="1" fill-rule="nonzero"/><path fill="#c5df94" d="M 64.507812 169.539062 L 64.507812 208.496094 C 63.832031 221.300781 64.828125 233.972656 67.5 246.515625 C 67.621094 246.910156 67.777344 247.289062 67.972656 247.652344 C 68.167969 248.011719 68.398438 248.355469 68.660156 248.671875 C 68.917969 248.992188 69.210938 249.285156 69.527344 249.546875 C 69.84375 249.808594 70.183594 250.039062 70.546875 250.238281 C 70.910156 250.433594 71.285156 250.597656 71.679688 250.722656 C 72.074219 250.847656 72.472656 250.933594 72.882812 250.980469 C 73.292969 251.027344 73.707031 251.035156 74.117188 251.003906 C 74.527344 250.972656 74.933594 250.898438 75.332031 250.789062 C 75.726562 250.679688 76.113281 250.535156 76.480469 250.351562 C 76.851562 250.164062 77.199219 249.949219 77.527344 249.699219 C 77.855469 249.445312 78.152344 249.167969 78.425781 248.859375 C 78.699219 248.550781 78.941406 248.21875 79.148438 247.863281 C 79.359375 247.507812 79.53125 247.132812 79.667969 246.746094 C 79.804688 246.355469 79.902344 245.960938 79.960938 245.550781 C 80.023438 245.144531 80.042969 244.734375 80.023438 244.324219 C 80.003906 243.910156 79.941406 243.507812 79.84375 243.105469 C 77.433594 231.183594 76.59375 219.148438 77.324219 207.003906 L 77.324219 169.539062 C 77.324219 169.121094 77.285156 168.703125 77.199219 168.292969 C 77.117188 167.882812 76.996094 167.480469 76.835938 167.09375 C 76.675781 166.707031 76.476562 166.335938 76.246094 165.988281 C 76.011719 165.640625 75.746094 165.316406 75.449219 165.019531 C 75.148438 164.722656 74.828125 164.457031 74.476562 164.222656 C 74.125 163.992188 73.757812 163.792969 73.367188 163.632812 C 72.980469 163.472656 72.578125 163.351562 72.167969 163.269531 C 71.753906 163.1875 71.335938 163.148438 70.917969 163.148438 C 70.496094 163.148438 70.078125 163.1875 69.667969 163.269531 C 69.253906 163.351562 68.851562 163.472656 68.464844 163.632812 C 68.074219 163.792969 67.707031 163.992188 67.355469 164.222656 C 67.007812 164.457031 66.683594 164.722656 66.386719 165.019531 C 66.085938 165.316406 65.820312 165.640625 65.589844 165.988281 C 65.355469 166.335938 65.15625 166.707031 64.996094 167.09375 C 64.835938 167.480469 64.714844 167.882812 64.632812 168.292969 C 64.550781 168.703125 64.507812 169.121094 64.507812 169.539062 Z M 64.507812 169.539062 " fill-opacity="1" fill-rule="nonzero"/><path fill="#c5df94" d="M 16.320312 223.246094 C 24.929688 220.507812 33.710938 218.558594 42.667969 217.390625 C 51.625 216.222656 60.613281 215.859375 69.636719 216.296875 C 70.054688 216.292969 70.46875 216.25 70.882812 216.167969 C 71.292969 216.082031 71.691406 215.960938 72.082031 215.800781 C 72.46875 215.636719 72.835938 215.441406 73.183594 215.207031 C 73.535156 214.972656 73.855469 214.707031 74.152344 214.410156 C 74.449219 214.117188 74.714844 213.792969 74.949219 213.445312 C 75.183594 213.097656 75.382812 212.730469 75.542969 212.34375 C 75.707031 211.957031 75.828125 211.558594 75.914062 211.148438 C 75.996094 210.738281 76.039062 210.324219 76.042969 209.902344 C 76.035156 209.484375 75.988281 209.074219 75.898438 208.664062 C 75.8125 208.257812 75.6875 207.859375 75.523438 207.476562 C 75.359375 207.09375 75.160156 206.726562 74.925781 206.378906 C 74.691406 206.035156 74.425781 205.714844 74.128906 205.417969 C 73.832031 205.125 73.511719 204.859375 73.164062 204.625 C 72.820312 204.390625 72.453125 204.191406 72.066406 204.03125 C 71.683594 203.867188 71.285156 203.742188 70.875 203.652344 C 70.46875 203.566406 70.054688 203.519531 69.636719 203.511719 C 60.007812 203.058594 50.414062 203.449219 40.855469 204.6875 C 31.300781 205.929688 21.925781 207.992188 12.734375 210.882812 C 4.914062 213.355469 8.460938 225.714844 16.148438 223.246094 Z M 16.320312 223.246094 " fill-opacity="1" fill-rule="nonzero"/><path fill="#fdd0b1" d="M 109.109375 223.246094 C 116.753906 221.878906 124.445312 220.601562 132.089844 219.195312 C 135.050781 218.878906 137.894531 218.117188 140.617188 216.910156 C 143.335938 215.703125 145.808594 214.105469 148.023438 212.121094 C 148.644531 211.441406 149.203125 210.71875 149.699219 209.949219 C 150.195312 209.179688 150.625 208.371094 150.988281 207.527344 C 151.347656 206.6875 151.636719 205.820312 151.851562 204.929688 C 152.066406 204.039062 152.207031 203.136719 152.269531 202.21875 C 152.335938 201.304688 152.320312 200.394531 152.230469 199.480469 C 152.140625 198.570312 151.976562 197.671875 151.734375 196.785156 C 151.492188 195.902344 151.179688 195.042969 150.792969 194.210938 C 150.40625 193.382812 149.953125 192.585938 149.433594 191.832031 C 148.335938 190.359375 147.085938 189.027344 145.6875 187.839844 C 144.285156 186.648438 142.769531 185.628906 141.140625 184.78125 C 139.507812 183.929688 137.800781 183.273438 136.023438 182.808594 C 134.242188 182.347656 132.433594 182.085938 130.59375 182.027344 C 128.894531 181.914062 127.195312 181.921875 125.492188 182.054688 C 123.792969 182.191406 122.113281 182.445312 120.449219 182.828125 C 118.789062 183.207031 117.164062 183.707031 115.574219 184.324219 C 113.984375 184.941406 112.449219 185.671875 110.96875 186.515625 C 109.488281 187.355469 108.074219 188.304688 106.734375 189.351562 C 105.390625 190.402344 104.132812 191.542969 102.960938 192.777344 C 101.785156 194.011719 100.707031 195.324219 99.726562 196.714844 C 98.746094 198.105469 97.871094 199.5625 97.101562 201.082031 C 91.335938 212.589844 91.335938 228.53125 101.757812 237.566406 C 105.015625 240.003906 108.578125 241.855469 112.445312 243.121094 C 116.316406 244.382812 120.285156 244.988281 124.359375 244.9375 C 132.925781 245.503906 141.472656 245.25 149.988281 244.171875 C 150.40625 244.160156 150.820312 244.109375 151.226562 244.023438 C 151.636719 243.933594 152.03125 243.804688 152.417969 243.640625 C 152.800781 243.476562 153.164062 243.277344 153.511719 243.042969 C 153.855469 242.808594 154.175781 242.546875 154.472656 242.25 C 154.769531 241.957031 155.035156 241.636719 155.269531 241.292969 C 155.5 240.945312 155.703125 240.582031 155.867188 240.199219 C 156.03125 239.816406 156.160156 239.421875 156.246094 239.015625 C 156.335938 238.605469 156.386719 238.195312 156.398438 237.777344 C 156.394531 237.359375 156.351562 236.945312 156.269531 236.535156 C 156.183594 236.125 156.0625 235.726562 155.898438 235.339844 C 155.738281 234.953125 155.539062 234.585938 155.304688 234.238281 C 155.070312 233.886719 154.804688 233.566406 154.507812 233.269531 C 154.210938 232.972656 153.890625 232.707031 153.539062 232.476562 C 153.191406 232.242188 152.824219 232.042969 152.433594 231.882812 C 152.046875 231.722656 151.648438 231.597656 151.238281 231.515625 C 150.824219 231.429688 150.410156 231.386719 149.988281 231.386719 C 143.652344 232.210938 137.285156 232.566406 130.894531 232.449219 C 125.664062 232.59375 120.507812 232.039062 115.429688 230.789062 C 114.480469 230.59375 113.570312 230.285156 112.699219 229.867188 C 111.828125 229.445312 111.019531 228.929688 110.273438 228.3125 C 109.53125 227.695312 108.871094 227 108.296875 226.21875 C 107.722656 225.441406 107.253906 224.605469 106.886719 223.714844 C 107.269531 224.652344 106.457031 222.519531 106.5 222.648438 C 106.539062 222.1875 106.609375 221.734375 106.714844 221.285156 C 106.714844 220.816406 106.5 220.347656 106.417969 219.878906 C 106.03125 217.832031 106.417969 220.816406 106.417969 218.726562 C 106.195312 216.722656 106.296875 214.730469 106.714844 212.757812 C 106.953125 211.664062 107.269531 210.589844 107.664062 209.539062 C 108.0625 208.488281 108.53125 207.472656 109.078125 206.492188 C 109.621094 205.511719 110.238281 204.578125 110.921875 203.6875 C 111.605469 202.796875 112.351562 201.960938 113.15625 201.179688 C 113.964844 200.398438 114.824219 199.683594 115.738281 199.027344 C 116.652344 198.375 117.609375 197.789062 118.605469 197.273438 C 119.605469 196.761719 120.636719 196.324219 121.703125 195.960938 C 122.765625 195.597656 123.851562 195.316406 124.957031 195.113281 C 127.042969 194.6875 129.136719 194.648438 131.234375 195 C 133.335938 195.355469 135.300781 196.074219 137.132812 197.160156 C 138.355469 197.921875 139.195312 198.988281 139.652344 200.355469 C 140.207031 202.1875 139.652344 200.355469 139.652344 201.25 C 139.652344 201.25 139.4375 202.914062 139.652344 202.144531 C 139.652344 202.402344 139.097656 203.339844 139.652344 202.53125 C 139.652344 202.742188 138.5 203.9375 139.183594 203.210938 C 139.183594 203.210938 137.816406 204.449219 138.457031 203.980469 C 139.097656 203.511719 137.472656 204.53125 137.257812 204.660156 C 137.046875 204.789062 135.808594 205.386719 136.703125 205 L 134.78125 205.683594 C 132.210938 206.402344 129.601562 206.972656 126.964844 207.390625 L 105.902344 211.097656 C 105.507812 211.222656 105.132812 211.382812 104.769531 211.578125 C 104.40625 211.777344 104.066406 212.003906 103.746094 212.269531 C 103.425781 212.53125 103.136719 212.820312 102.875 213.140625 C 102.609375 213.457031 102.378906 213.796875 102.183594 214.160156 C 101.984375 214.519531 101.824219 214.898438 101.699219 215.292969 C 101.574219 215.683594 101.488281 216.085938 101.441406 216.496094 C 101.394531 216.90625 101.386719 217.316406 101.417969 217.726562 C 101.453125 218.136719 101.523438 218.542969 101.632812 218.9375 C 101.75 219.339844 101.90625 219.722656 102.097656 220.09375 C 102.289062 220.464844 102.515625 220.8125 102.777344 221.140625 C 103.035156 221.464844 103.324219 221.765625 103.640625 222.035156 C 103.957031 222.308594 104.296875 222.546875 104.660156 222.753906 C 105.023438 222.960938 105.402344 223.132812 105.796875 223.265625 C 106.191406 223.398438 106.597656 223.496094 107.011719 223.550781 C 107.425781 223.609375 107.839844 223.625 108.257812 223.601562 C 108.675781 223.578125 109.085938 223.515625 109.492188 223.414062 Z M 109.109375 223.246094 " fill-opacity="1" fill-rule="nonzero"/><path fill="#aee0e8" d="M 170.324219 159.78125 C 169.003906 178.402344 170.15625 196.871094 173.785156 215.1875 C 175.28125 222.777344 178.355469 230.449219 186.214844 233.304688 C 194.757812 236.414062 202.917969 231.980469 209.667969 227.082031 C 210.011719 226.863281 210.332031 226.617188 210.628906 226.339844 C 210.925781 226.066406 211.195312 225.765625 211.4375 225.4375 C 211.679688 225.113281 211.886719 224.765625 212.0625 224.402344 C 212.242188 224.035156 212.382812 223.65625 212.488281 223.265625 C 212.59375 222.875 212.664062 222.476562 212.695312 222.074219 C 212.726562 221.667969 212.71875 221.265625 212.675781 220.863281 C 212.632812 220.460938 212.550781 220.066406 212.433594 219.675781 C 212.316406 219.289062 212.164062 218.914062 211.976562 218.554688 C 211.761719 218.210938 211.519531 217.886719 211.242188 217.585938 C 210.96875 217.285156 210.667969 217.015625 210.339844 216.769531 C 210.015625 216.527344 209.667969 216.316406 209.300781 216.136719 C 208.933594 215.960938 208.554688 215.820312 208.160156 215.710938 C 207.769531 215.605469 207.367188 215.539062 206.960938 215.507812 C 206.554688 215.476562 206.148438 215.484375 205.746094 215.53125 C 205.339844 215.578125 204.941406 215.664062 204.554688 215.785156 C 204.164062 215.90625 203.789062 216.0625 203.433594 216.253906 C 200.398438 218.46875 193.734375 224.183594 189.71875 220.941406 C 188.175781 219.242188 187.265625 217.253906 186.984375 214.976562 C 186.128906 211.480469 185.53125 207.859375 184.976562 204.277344 C 182.785156 189.519531 182.246094 174.699219 183.355469 159.820312 C 183.351562 159.402344 183.308594 158.988281 183.222656 158.578125 C 183.140625 158.167969 183.015625 157.769531 182.855469 157.382812 C 182.691406 156.996094 182.496094 156.628906 182.261719 156.28125 C 182.027344 155.933594 181.761719 155.609375 181.464844 155.3125 C 181.167969 155.015625 180.84375 154.753906 180.496094 154.519531 C 180.148438 154.285156 179.777344 154.089844 179.390625 153.925781 C 179.003906 153.765625 178.605469 153.640625 178.191406 153.558594 C 177.78125 153.476562 177.367188 153.429688 176.945312 153.429688 C 176.527344 153.4375 176.113281 153.484375 175.703125 153.570312 C 175.296875 153.660156 174.898438 153.785156 174.511719 153.949219 C 174.128906 154.113281 173.761719 154.3125 173.414062 154.542969 C 173.066406 154.777344 172.746094 155.042969 172.449219 155.335938 C 172.15625 155.632812 171.890625 155.953125 171.65625 156.300781 C 171.421875 156.644531 171.222656 157.011719 171.058594 157.394531 C 170.894531 157.777344 170.769531 158.175781 170.679688 158.582031 C 170.59375 158.992188 170.546875 159.40625 170.539062 159.820312 Z M 170.324219 159.78125 " fill-opacity="1" fill-rule="nonzero"/><path fill="#fff37a" d="M 221.585938 146.140625 C 220.402344 164.789062 220.675781 183.414062 222.398438 202.019531 C 223.339844 209.988281 225.816406 218 232.867188 222.605469 C 233.632812 223.132812 234.4375 223.59375 235.277344 223.988281 C 236.121094 224.382812 236.988281 224.707031 237.886719 224.960938 C 238.78125 225.214844 239.691406 225.394531 240.617188 225.5 C 241.542969 225.605469 242.46875 225.636719 243.398438 225.589844 C 244.328125 225.542969 245.246094 225.421875 246.15625 225.226562 C 247.066406 225.03125 247.957031 224.761719 248.820312 224.421875 C 249.6875 224.082031 250.519531 223.671875 251.320312 223.195312 C 252.117188 222.71875 252.875 222.179688 253.585938 221.582031 C 259.820312 216.167969 250.722656 207.175781 244.484375 212.503906 C 241.792969 214.890625 237.734375 210.203125 236.796875 208.242188 C 234.945312 202.5 234.175781 196.617188 234.488281 190.59375 C 233.804688 175.804688 233.804688 161.015625 234.488281 146.226562 C 234.832031 138 222.015625 138 221.671875 146.226562 Z M 221.585938 146.140625 " fill-opacity="1" fill-rule="nonzero"/><path fill="#fbb885" d="M 291.433594 160.503906 C 288.585938 162.332031 285.917969 164.394531 283.429688 166.6875 C 280.941406 168.980469 278.671875 171.46875 276.621094 174.160156 C 274.570312 176.847656 272.769531 179.695312 271.21875 182.699219 C 269.667969 185.703125 268.386719 188.816406 267.382812 192.042969 C 263.109375 205.300781 264.265625 222.304688 279.644531 227.335938 C 286.277344 229.125 293.011719 229.664062 299.847656 228.957031 C 301.710938 228.917969 303.542969 228.683594 305.351562 228.242188 C 307.160156 227.804688 308.898438 227.171875 310.566406 226.351562 C 312.234375 225.53125 313.792969 224.539062 315.242188 223.375 C 316.691406 222.210938 317.996094 220.902344 319.160156 219.449219 C 321.078125 216.621094 322.570312 213.585938 323.636719 210.339844 C 324.703125 207.097656 325.304688 203.769531 325.4375 200.355469 C 325.859375 196.457031 325.78125 192.570312 325.203125 188.691406 C 324.621094 184.816406 323.5625 181.074219 322.019531 177.46875 C 321.238281 175.679688 320.289062 173.984375 319.175781 172.378906 C 318.0625 170.777344 316.804688 169.292969 315.402344 167.933594 C 314 166.574219 312.476562 165.363281 310.839844 164.300781 C 309.199219 163.238281 307.472656 162.339844 305.660156 161.613281 C 303.8125 160.894531 301.910156 160.414062 299.945312 160.171875 C 297.980469 159.925781 296.015625 159.925781 294.050781 160.164062 C 292.085938 160.40625 290.183594 160.886719 288.335938 161.597656 C 286.492188 162.3125 284.761719 163.242188 283.144531 164.382812 C 282.804688 164.601562 282.488281 164.851562 282.195312 165.128906 C 281.902344 165.40625 281.636719 165.710938 281.394531 166.035156 C 281.15625 166.363281 280.949219 166.707031 280.777344 167.074219 C 280.601562 167.4375 280.460938 167.8125 280.355469 168.203125 C 280.25 168.59375 280.179688 168.992188 280.148438 169.394531 C 280.117188 169.796875 280.121094 170.199219 280.160156 170.601562 C 280.203125 171.003906 280.28125 171.398438 280.394531 171.785156 C 280.507812 172.171875 280.65625 172.546875 280.839844 172.90625 C 281.058594 173.265625 281.308594 173.601562 281.589844 173.910156 C 281.871094 174.222656 282.183594 174.503906 282.519531 174.753906 C 282.855469 175.003906 283.214844 175.222656 283.59375 175.402344 C 283.972656 175.585938 284.363281 175.730469 284.773438 175.835938 C 285.179688 175.941406 285.59375 176.007812 286.011719 176.035156 C 286.429688 176.0625 286.851562 176.050781 287.265625 175.996094 C 287.683594 175.941406 288.09375 175.847656 288.492188 175.714844 C 288.890625 175.585938 289.273438 175.414062 289.640625 175.207031 C 297.03125 169.539062 305.785156 174.015625 309.84375 181.515625 C 311.003906 183.871094 311.835938 186.335938 312.34375 188.90625 C 312.851562 191.480469 313.015625 194.074219 312.835938 196.691406 C 312.945312 201.410156 311.976562 205.902344 309.929688 210.160156 C 309.46875 210.988281 308.910156 211.746094 308.257812 212.433594 C 307.609375 213.121094 306.878906 213.71875 306.078125 214.222656 C 305.277344 214.730469 304.421875 215.128906 303.519531 215.421875 C 302.617188 215.714844 301.695312 215.894531 300.746094 215.957031 C 295.65625 216.609375 290.585938 216.464844 285.539062 215.53125 C 284.644531 215.460938 283.785156 215.25 282.964844 214.894531 C 282.140625 214.539062 281.398438 214.0625 280.738281 213.460938 C 280.078125 212.855469 279.53125 212.164062 279.101562 211.378906 C 278.671875 210.59375 278.382812 209.761719 278.234375 208.878906 C 277.605469 204.511719 278.03125 200.25 279.515625 196.09375 C 280.25 193.570312 281.199219 191.132812 282.367188 188.78125 C 283.539062 186.429688 284.90625 184.195312 286.472656 182.085938 C 288.042969 179.976562 289.785156 178.023438 291.699219 176.222656 C 293.617188 174.421875 295.679688 172.804688 297.882812 171.371094 C 304.804688 166.898438 298.398438 155.816406 291.433594 160.332031 Z M 291.433594 160.503906 " fill-opacity="1" fill-rule="nonzero"/><path fill="#d8d6ec" d="M 357.5625 117.839844 C 352.753906 128.652344 349.265625 139.875 347.101562 151.503906 C 344.9375 163.136719 344.152344 174.859375 344.746094 186.675781 C 345.175781 194.859375 357.988281 194.941406 357.5625 186.675781 C 356.9375 175.984375 357.558594 165.371094 359.429688 154.828125 C 361.296875 144.285156 364.363281 134.101562 368.628906 124.273438 C 368.824219 123.910156 368.988281 123.527344 369.113281 123.132812 C 369.238281 122.734375 369.328125 122.332031 369.375 121.917969 C 369.425781 121.503906 369.4375 121.089844 369.40625 120.675781 C 369.378906 120.261719 369.3125 119.851562 369.203125 119.453125 C 369.097656 119.050781 368.957031 118.660156 368.777344 118.285156 C 368.597656 117.910156 368.382812 117.554688 368.136719 117.21875 C 367.890625 116.886719 367.613281 116.578125 367.308594 116.292969 C 367.003906 116.011719 366.671875 115.757812 366.320312 115.539062 C 365.960938 115.34375 365.589844 115.183594 365.199219 115.058594 C 364.808594 114.9375 364.414062 114.851562 364.007812 114.804688 C 363.601562 114.753906 363.195312 114.746094 362.789062 114.777344 C 362.382812 114.804688 361.980469 114.875 361.585938 114.980469 C 361.191406 115.085938 360.8125 115.230469 360.445312 115.40625 C 360.078125 115.585938 359.730469 115.796875 359.40625 116.042969 C 359.078125 116.289062 358.777344 116.5625 358.503906 116.863281 C 358.230469 117.164062 357.988281 117.492188 357.777344 117.839844 Z M 357.5625 117.839844 " fill-opacity="1" fill-rule="nonzero"/><path fill="#d8d6ec" d="M 344.917969 203.125 C 344.519531 204.898438 344.246094 206.6875 344.105469 208.496094 C 344.039062 209.109375 344.039062 209.71875 344.105469 210.328125 C 344.175781 211.445312 344.375 212.539062 344.703125 213.613281 C 345 214.527344 345.398438 215.394531 345.902344 216.210938 C 346.6875 217.484375 347.691406 218.558594 348.902344 219.4375 C 350.117188 220.316406 351.449219 220.929688 352.90625 221.285156 C 354.402344 221.628906 355.898438 221.628906 357.390625 221.285156 C 357.808594 221.171875 358.207031 221.015625 358.589844 220.816406 C 359.035156 220.660156 359.460938 220.460938 359.871094 220.21875 C 360.621094 219.746094 361.304688 219.191406 361.921875 218.554688 C 362.890625 217.484375 363.605469 216.261719 364.054688 214.890625 C 364.226562 214.410156 364.355469 213.921875 364.4375 213.417969 C 364.519531 212.917969 364.558594 212.414062 364.550781 211.90625 C 364.542969 211.398438 364.492188 210.894531 364.394531 210.394531 C 364.296875 209.894531 364.15625 209.410156 363.96875 208.9375 C 363.785156 208.460938 363.558594 208.007812 363.292969 207.574219 C 363.027344 207.140625 362.726562 206.734375 362.386719 206.355469 C 362.046875 205.976562 361.675781 205.628906 361.277344 205.316406 C 360.875 205.003906 360.449219 204.726562 359.996094 204.492188 C 358.265625 203.609375 356.429688 203.15625 354.488281 203.125 C 353.589844 203.125 352.691406 203.125 351.796875 203.125 L 353.503906 203.339844 C 353.164062 203.300781 352.835938 203.214844 352.523438 203.082031 L 354.015625 203.765625 L 353.546875 203.46875 L 354.828125 204.492188 L 354.488281 204.234375 L 355.46875 205.511719 L 355.214844 205.085938 L 355.898438 206.621094 C 355.703125 205.796875 355.316406 205.070312 354.742188 204.449219 C 354.292969 203.734375 353.695312 203.183594 352.949219 202.785156 C 352.199219 202.351562 351.394531 202.082031 350.535156 201.972656 C 349.675781 201.859375 348.828125 201.917969 347.992188 202.144531 C 347.191406 202.375 346.457031 202.746094 345.792969 203.253906 C 345.128906 203.761719 344.582031 204.371094 344.148438 205.085938 C 343.714844 205.828125 343.441406 206.621094 343.332031 207.472656 C 343.21875 208.324219 343.277344 209.164062 343.507812 209.988281 C 343.898438 211.265625 344.554688 212.386719 345.472656 213.355469 C 345.988281 213.921875 346.574219 214.40625 347.226562 214.804688 C 348.378906 215.464844 349.617188 215.847656 350.941406 215.957031 C 351.796875 216.019531 352.648438 216.019531 353.503906 215.957031 C 354.144531 215.914062 354.785156 215.914062 355.425781 215.957031 L 353.71875 215.742188 C 354.121094 215.777344 354.503906 215.875 354.871094 216.042969 L 353.375 215.402344 C 353.609375 215.5 353.824219 215.625 354.015625 215.785156 L 352.691406 214.761719 C 352.855469 214.882812 353 215.023438 353.121094 215.1875 L 352.09375 213.867188 C 352.183594 213.984375 352.253906 214.113281 352.308594 214.25 L 351.753906 212.757812 C 351.796875 212.957031 351.796875 213.15625 351.753906 213.355469 L 351.539062 211.652344 L 351.539062 212.332031 L 351.753906 210.628906 C 351.703125 210.890625 351.628906 211.144531 351.539062 211.394531 L 352.179688 209.859375 C 352.050781 210.144531 351.890625 210.414062 351.710938 210.671875 L 352.691406 209.390625 C 352.527344 209.597656 352.34375 209.78125 352.136719 209.945312 L 353.417969 208.964844 L 352.734375 209.390625 L 354.273438 208.753906 L 353.589844 208.753906 L 355.296875 208.496094 L 354.488281 208.496094 L 356.195312 208.710938 C 355.902344 208.667969 355.617188 208.597656 355.339844 208.496094 L 356.878906 209.136719 C 356.570312 209.007812 356.285156 208.835938 356.023438 208.625 L 357.304688 209.648438 C 356.929688 209.3125 356.574219 208.957031 356.238281 208.582031 L 357.265625 209.859375 C 356.957031 209.464844 356.699219 209.039062 356.496094 208.582031 L 357.179688 210.117188 C 356.976562 209.578125 356.832031 209.023438 356.75 208.453125 L 356.75 210.160156 C 356.621094 209.152344 356.621094 208.140625 356.75 207.132812 L 356.496094 208.796875 C 356.496094 207.984375 356.792969 207.175781 356.964844 206.367188 C 357.171875 205.53125 357.222656 204.6875 357.109375 203.832031 C 357 202.980469 356.738281 202.175781 356.324219 201.421875 C 355.898438 200.703125 355.351562 200.089844 354.6875 199.578125 C 354.023438 199.070312 353.285156 198.703125 352.480469 198.480469 C 351.652344 198.25 350.808594 198.191406 349.957031 198.304688 C 349.105469 198.414062 348.308594 198.6875 347.566406 199.121094 C 346.84375 199.542969 346.226562 200.085938 345.71875 200.75 C 345.207031 201.414062 344.84375 202.148438 344.617188 202.957031 Z M 344.917969 203.125 " fill-opacity="1" fill-rule="nonzero"/></svg>